<svg xmlns="http://www.w3.org/2000/svg" xmlns:xlink="http://www.w3.org/1999/xlink" width="400" zoomAndPan="magnify" viewBox="0 0 300 149.999998" height="200" preserveAspectRatio="xMidYMid meet" version="1.0"><defs><g/><clipPath id="b22bbd8681"><path d="M 16 15 L 113.25 15 L 113.25 135 L 16 135 Z M 16 15 " clip-rule="nonzero"/></clipPath></defs><rect x="-30" width="360" fill="#ffffff" y="-15" height="179.999997" fill-opacity="1"/><rect x="-30" width="360" fill="#7eb8cb" y="-15" height="179.999997" fill-opacity="1"/><path fill="#add8e6" d="M 297.609375 41.84375 C 297.972656 41.472656 297.972656 40.914062 297.609375 40.542969 C 297.242188 40.183594 296.679688 40.183594 296.308594 40.542969 C 296.007812 40.855469 295.957031 41.304688 296.171875 41.660156 L 285.867188 51.964844 L 279.519531 51.964844 L 269.828125 61.660156 L 269.828125 86.191406 L 275.292969 91.65625 L 275.292969 148.183594 C 274.894531 148.285156 274.597656 148.648438 274.597656 149.074219 C 274.597656 149.582031 275.011719 149.996094 275.519531 149.996094 C 276.023438 149.996094 276.441406 149.585938 276.441406 149.074219 C 276.441406 148.648438 276.144531 148.285156 275.75 148.183594 L 275.75 91.46875 L 270.285156 86.003906 L 270.285156 61.847656 L 279.710938 52.421875 L 286.054688 52.421875 L 296.496094 41.984375 C 296.847656 42.195312 297.296875 42.148438 297.609375 41.84375 M 287.101562 2.746094 C 287.101562 2.242188 286.691406 1.824219 286.183594 1.824219 C 285.675781 1.824219 285.261719 2.238281 285.261719 2.746094 C 285.261719 3.175781 285.558594 3.535156 285.953125 3.640625 L 285.953125 32.476562 L 280.300781 38.128906 L 267.808594 38.128906 L 247.980469 57.957031 L 247.980469 84.636719 L 242.289062 90.328125 L 242.289062 120.257812 C 241.894531 120.359375 241.597656 120.722656 241.597656 121.148438 C 241.597656 121.65625 242.007812 122.070312 242.519531 122.070312 C 243.023438 122.070312 243.441406 121.660156 243.441406 121.148438 C 243.441406 120.722656 243.144531 120.359375 242.746094 120.257812 L 242.746094 90.515625 L 248.4375 84.824219 L 248.4375 58.144531 L 268 38.582031 L 280.492188 38.582031 L 286.410156 32.664062 L 286.410156 3.640625 C 286.808594 3.535156 287.101562 3.175781 287.101562 2.746094 Z M 273.28125 51.773438 C 273.640625 51.402344 273.640625 50.839844 273.28125 50.472656 C 272.910156 50.109375 272.351562 50.109375 271.980469 50.472656 C 271.679688 50.785156 271.628906 51.234375 271.84375 51.589844 L 262.136719 61.292969 L 262.136719 88.933594 L 268.125 94.921875 L 268.125 114.78125 C 267.730469 114.886719 267.433594 115.246094 267.433594 115.675781 C 267.433594 116.179688 267.847656 116.597656 268.355469 116.597656 C 268.859375 116.597656 269.277344 116.183594 269.277344 115.675781 C 269.277344 115.246094 268.980469 114.886719 268.582031 114.78125 L 268.582031 94.738281 L 262.59375 88.746094 L 262.59375 61.488281 L 272.164062 51.917969 C 272.519531 52.125 272.964844 52.074219 273.28125 51.773438 Z M 277.136719 65.480469 C 277.136719 64.976562 276.722656 64.558594 276.214844 64.558594 C 275.710938 64.558594 275.292969 64.972656 275.292969 65.480469 C 275.292969 65.910156 275.589844 66.269531 275.988281 66.371094 L 275.988281 82.773438 L 283.503906 90.289062 L 283.503906 116.929688 L 287.601562 121.03125 L 287.601562 140.3125 C 287.207031 140.417969 286.910156 140.777344 286.910156 141.207031 C 286.910156 141.710938 287.320312 142.125 287.832031 142.125 C 288.335938 142.125 288.75 141.714844 288.75 141.207031 C 288.75 140.777344 288.457031 140.417969 288.058594 140.3125 L 288.058594 120.839844 L 283.960938 116.742188 L 283.960938 90.101562 L 276.445312 82.582031 L 276.445312 66.371094 C 276.839844 66.269531 277.136719 65.910156 277.136719 65.480469 Z M 298.898438 55.386719 C 299.964844 54.304688 299.964844 52.589844 298.898438 51.511719 C 297.820312 50.445312 296.105469 50.445312 295.023438 51.511719 C 294.125 52.421875 293.984375 53.785156 294.601562 54.839844 L 284.386719 65.054688 L 284.386719 77.007812 L 291.035156 83.65625 L 291.035156 95.15625 C 289.855469 95.460938 288.980469 96.539062 288.980469 97.804688 C 288.980469 99.3125 290.210938 100.542969 291.71875 100.542969 C 293.226562 100.542969 294.453125 99.3125 294.453125 97.804688 C 294.453125 96.535156 293.578125 95.460938 292.402344 95.15625 L 292.402344 83.089844 L 285.75 76.441406 L 285.75 65.625 L 295.574219 55.808594 C 296.621094 56.425781 297.988281 56.285156 298.898438 55.386719 Z M 284.472656 2.746094 C 284.472656 1.238281 283.242188 0.0078125 281.734375 0.0078125 C 280.226562 0.0078125 278.996094 1.238281 278.996094 2.746094 C 278.996094 4.019531 279.875 5.089844 281.050781 5.398438 L 281.050781 27.152344 L 277.414062 30.792969 L 266.121094 30.792969 L 241.785156 55.128906 L 225.597656 55.128906 L 213.664062 67.058594 C 212.613281 66.441406 211.25 66.578125 210.339844 67.480469 C 209.273438 68.558594 209.273438 70.277344 210.339844 71.355469 C 211.417969 72.421875 213.132812 72.421875 214.210938 71.355469 C 215.113281 70.441406 215.253906 69.082031 214.632812 68.027344 L 226.164062 56.496094 L 242.355469 56.496094 L 266.691406 32.160156 L 277.984375 32.160156 L 282.425781 27.71875 L 282.425781 5.398438 C 283.597656 5.089844 284.472656 4.019531 284.472656 2.746094 Z M 230.773438 103.144531 C 230.773438 103.652344 231.1875 104.066406 231.695312 104.066406 C 232.199219 104.066406 232.617188 103.652344 232.617188 103.144531 C 232.617188 102.71875 232.320312 102.355469 231.921875 102.253906 L 231.921875 90.300781 L 239.246094 82.976562 L 239.246094 61.433594 L 229.476562 61.433594 L 220.992188 69.917969 L 220.992188 80.074219 C 220.59375 80.179688 220.296875 80.539062 220.296875 80.96875 C 220.296875 81.472656 220.710938 81.886719 221.21875 81.886719 C 221.726562 81.886719 222.140625 81.476562 222.140625 80.96875 C 222.140625 80.539062 221.84375 80.179688 221.449219 80.074219 L 221.449219 70.109375 L 229.667969 61.890625 L 238.789062 61.890625 L 238.789062 82.785156 L 231.464844 90.113281 L 231.464844 102.253906 C 231.070312 102.355469 230.773438 102.71875 230.773438 103.144531 Z M 276.628906 2.746094 C 276.628906 2.242188 276.21875 1.824219 275.710938 1.824219 C 275.203125 1.824219 274.789062 2.238281 274.789062 2.746094 C 274.789062 3.175781 275.085938 3.535156 275.480469 3.640625 L 275.480469 22.277344 L 273.21875 24.539062 L 264.582031 24.539062 L 254.550781 14.511719 L 225.644531 14.511719 L 213.679688 26.472656 L 200.207031 26.472656 C 200.105469 26.078125 199.742188 25.78125 199.316406 25.78125 C 198.808594 25.78125 198.394531 26.195312 198.394531 26.703125 C 198.394531 27.207031 198.804688 27.625 199.316406 27.625 C 199.742188 27.625 200.105469 27.328125 200.207031 26.929688 L 213.871094 26.929688 L 225.835938 14.96875 L 254.363281 14.96875 L 264.390625 24.996094 L 273.410156 24.996094 L 275.941406 22.464844 L 275.941406 3.640625 C 276.335938 3.535156 276.628906 3.175781 276.628906 2.746094 Z M 265.425781 18.144531 C 266.503906 19.210938 268.21875 19.210938 269.296875 18.144531 C 270.363281 17.066406 270.363281 15.351562 269.296875 14.273438 C 268.386719 13.371094 267.023438 13.230469 265.972656 13.851562 L 260.867188 8.746094 L 220.941406 8.746094 L 213.132812 16.550781 L 192.589844 16.550781 C 192.28125 15.375 191.207031 14.496094 189.9375 14.496094 C 188.429688 14.496094 187.199219 15.726562 187.199219 17.234375 C 187.199219 18.742188 188.429688 19.972656 189.9375 19.972656 C 191.210938 19.972656 192.28125 19.097656 192.589844 17.917969 L 213.699219 17.917969 L 221.503906 10.113281 L 260.296875 10.113281 L 265 14.816406 C 264.382812 15.871094 264.523438 17.238281 265.425781 18.144531 Z M 213.488281 10.285156 C 213.992188 10.285156 214.410156 9.875 214.410156 9.363281 C 214.410156 8.859375 213.996094 8.445312 213.488281 8.445312 C 213.058594 8.445312 212.699219 8.738281 212.597656 9.136719 L 197.082031 9.136719 L 193.832031 5.882812 L 177.003906 5.882812 C 176.898438 5.488281 176.539062 5.191406 176.109375 5.191406 C 175.605469 5.191406 175.1875 5.601562 175.1875 6.113281 C 175.1875 6.617188 175.601562 7.03125 176.109375 7.03125 C 176.539062 7.03125 176.898438 6.738281 177.003906 6.339844 L 193.644531 6.339844 L 196.898438 9.59375 L 212.597656 9.59375 C 212.699219 9.992188 213.058594 10.285156 213.488281 10.285156 Z M 255.894531 29.460938 C 256.257812 29.089844 256.257812 28.527344 255.894531 28.15625 C 255.523438 27.796875 254.964844 27.796875 254.59375 28.15625 C 254.292969 28.46875 254.242188 28.921875 254.457031 29.277344 L 238.585938 45.144531 L 222.84375 45.144531 L 203.816406 64.171875 L 203.816406 99.105469 C 203.421875 99.210938 203.125 99.570312 203.125 100 C 203.125 100.503906 203.539062 100.921875 204.046875 100.921875 C 204.550781 100.921875 204.96875 100.507812 204.96875 100 C 204.96875 99.570312 204.671875 99.210938 204.273438 99.105469 L 204.273438 64.359375 L 223.03125 45.601562 L 238.777344 45.601562 L 254.78125 29.597656 C 255.132812 29.808594 255.578125 29.761719 255.894531 29.460938 Z M 259.855469 30.644531 C 260.226562 31.003906 260.785156 31.003906 261.15625 30.644531 C 261.519531 30.273438 261.519531 29.714844 261.15625 29.34375 C 260.84375 29.039062 260.394531 28.992188 260.039062 29.203125 L 251.355469 20.519531 L 229.484375 20.519531 L 216.6875 33.3125 L 187.203125 33.3125 C 187.101562 32.917969 186.742188 32.621094 186.3125 32.621094 C 185.804688 32.621094 185.390625 33.035156 185.390625 33.542969 C 185.390625 34.046875 185.804688 34.464844 186.3125 34.464844 C 186.742188 34.464844 187.101562 34.167969 187.203125 33.769531 L 216.875 33.769531 L 229.667969 20.976562 L 251.164062 20.976562 L 259.71875 29.53125 C 259.503906 29.878906 259.550781 30.332031 259.855469 30.644531 Z M 243.675781 35.058594 C 245.695312 35.050781 247.3125 33.429688 247.328125 31.40625 C 247.316406 29.386719 245.695312 27.769531 243.675781 27.753906 C 241.96875 27.765625 240.546875 28.917969 240.140625 30.492188 L 227.960938 30.492188 L 219.613281 38.84375 L 208.191406 38.84375 C 207.78125 37.269531 206.363281 36.117188 204.65625 36.105469 C 202.636719 36.117188 201.019531 37.734375 201.007812 39.757812 C 201.015625 41.78125 202.636719 43.394531 204.65625 43.410156 C 206.363281 43.398438 207.785156 42.246094 208.191406 40.671875 L 220.371094 40.671875 L 228.71875 32.320312 L 240.140625 32.320312 C 240.546875 33.898438 241.96875 35.050781 243.675781 35.058594 Z M 292.714844 2.746094 C 292.714844 2.242188 292.304688 1.824219 291.796875 1.824219 C 291.289062 1.824219 290.875 2.238281 290.875 2.746094 C 290.875 3.175781 291.171875 3.535156 291.566406 3.640625 L 291.566406 36.105469 L 282.734375 44.9375 L 269.519531 44.9375 L 254.363281 60.097656 L 254.363281 95.410156 C 253.964844 95.511719 253.671875 95.875 253.671875 96.300781 C 253.671875 96.808594 254.082031 97.222656 254.589844 97.222656 C 255.097656 97.222656 255.511719 96.8125 255.511719 96.300781 C 255.511719 95.875 255.214844 95.511719 254.820312 95.410156 L 254.820312 60.285156 L 269.710938 45.394531 L 282.921875 45.394531 L 292.023438 36.292969 L 292.023438 3.640625 C 292.421875 3.535156 292.714844 3.175781 292.714844 2.746094 Z M 292.714844 2.746094 " fill-opacity="1" fill-rule="nonzero"/><g clip-path="url(#b22bbd8681)"><path fill="#add8e6" d="M 34.613281 83.269531 C 34.328125 81.871094 34.105469 80.457031 33.964844 79.039062 C 33.8125 77.589844 33.742188 76.160156 33.742188 74.757812 C 33.742188 69.792969 34.621094 64.894531 36.304688 60.289062 C 37.992188 55.683594 40.476562 51.375 43.6875 47.574219 L 45.996094 49.527344 C 43.015625 53.058594 40.710938 57.054688 39.148438 61.320312 C 37.585938 65.585938 36.769531 70.132812 36.769531 74.757812 C 36.769531 76.113281 36.839844 77.441406 36.96875 78.730469 C 37.105469 80.054688 37.304688 81.367188 37.574219 82.667969 Z M 40.296875 110.332031 C 33.582031 103.613281 29.042969 95.292969 26.929688 86.398438 C 24.8125 77.503906 25.121094 68.035156 28.09375 59.015625 L 32.699219 60.527344 C 30.007812 68.679688 29.734375 77.242188 31.644531 85.28125 C 33.558594 93.316406 37.65625 100.839844 43.726562 106.90625 Z M 81.054688 124.789062 C 74.375 125.480469 67.703125 124.824219 61.40625 122.9375 C 55.109375 121.046875 49.175781 117.910156 43.976562 113.648438 L 47.042969 109.917969 C 51.722656 113.753906 57.085938 116.582031 62.789062 118.292969 C 68.496094 120.007812 74.53125 120.597656 80.5625 119.976562 Z M 25.335938 93.3125 C 21.835938 83.777344 21.171875 73.65625 23.113281 64.066406 C 25.058594 54.480469 29.613281 45.417969 36.554688 37.996094 L 37.433594 38.820312 C 30.652344 46.074219 26.195312 54.929688 24.296875 64.304688 C 22.398438 73.675781 23.050781 83.570312 26.472656 92.894531 Z M 47.484375 29.027344 C 49.046875 28.058594 50.644531 27.175781 52.277344 26.378906 C 53.910156 25.582031 55.597656 24.867188 57.3125 24.230469 C 63.277344 22.042969 69.539062 20.941406 75.800781 20.9375 C 82.0625 20.929688 88.324219 22.015625 94.292969 24.191406 L 93.882812 25.328125 C 88.039062 23.199219 81.917969 22.136719 75.800781 22.144531 C 69.683594 22.148438 63.5625 23.226562 57.726562 25.371094 C 56.054688 25.984375 54.410156 26.683594 52.804688 27.46875 C 51.191406 28.253906 49.625 29.121094 48.117188 30.054688 Z M 101.601562 27.488281 C 104.433594 29.03125 107.121094 30.820312 109.613281 32.832031 C 112.113281 34.84375 114.433594 37.078125 116.542969 39.515625 L 115.628906 40.304688 C 113.570312 37.925781 111.300781 35.738281 108.855469 33.773438 C 106.410156 31.804688 103.789062 30.054688 101.023438 28.550781 Z M 121.144531 45.65625 C 122.210938 47.316406 123.183594 49.03125 124.058594 50.785156 C 124.9375 52.546875 125.714844 54.359375 126.394531 56.210938 C 131.445312 69.964844 130.53125 84.472656 124.9375 96.878906 C 119.347656 109.28125 109.082031 119.578125 95.4375 124.90625 L 94.996094 123.78125 C 108.335938 118.570312 118.375 108.507812 123.839844 96.382812 C 129.304688 84.257812 130.195312 70.074219 125.261719 56.628906 C 124.597656 54.824219 123.832031 53.050781 122.976562 51.332031 C 122.121094 49.605469 121.164062 47.929688 120.128906 46.316406 Z M 77.773438 128.550781 C 67.9375 128.898438 58.398438 126.546875 50.066406 121.996094 C 41.726562 117.445312 34.597656 110.683594 29.574219 102.222656 L 30.613281 101.609375 C 35.523438 109.878906 42.496094 116.484375 50.644531 120.9375 C 58.789062 125.386719 68.117188 127.683594 77.730469 127.34375 Z M 39.652344 122.171875 C 30.703125 115.335938 24.058594 106.265625 20.171875 96.136719 C 16.285156 86.011719 15.152344 74.824219 17.226562 63.761719 L 20.199219 64.316406 C 18.230469 74.832031 19.300781 85.449219 22.992188 95.0625 C 26.679688 104.667969 32.988281 113.273438 41.488281 119.765625 Z M 22.113281 48.875 C 22.992188 47.054688 23.960938 45.273438 25.019531 43.554688 C 26.078125 41.828125 27.226562 40.152344 28.457031 38.542969 C 32.730469 32.949219 37.933594 28.191406 43.789062 24.460938 C 49.640625 20.730469 56.140625 18.019531 63.023438 16.5 L 63.671875 19.449219 C 57.140625 20.890625 50.964844 23.464844 45.414062 27.007812 C 39.863281 30.546875 34.925781 35.058594 30.863281 40.378906 C 29.695312 41.910156 28.605469 43.492188 27.601562 45.128906 C 26.601562 46.761719 25.675781 48.453125 24.839844 50.191406 Z M 71.8125 15.234375 C 75.375 14.992188 78.949219 15.070312 82.484375 15.464844 C 86.023438 15.859375 89.527344 16.570312 92.941406 17.589844 L 92.078125 20.492188 C 88.824219 19.523438 85.5 18.847656 82.148438 18.472656 C 78.792969 18.101562 75.398438 18.023438 72.015625 18.257812 Z M 100.894531 20.597656 C 102.886719 21.519531 104.816406 22.542969 106.675781 23.664062 C 108.53125 24.78125 110.335938 26.011719 112.082031 27.34375 C 124.992188 37.203125 132.769531 51.320312 134.921875 66.246094 C 137.070312 81.167969 133.597656 96.90625 124 110.007812 L 121.5625 108.21875 C 130.671875 95.78125 133.96875 80.839844 131.925781 66.667969 C 129.882812 52.5 122.5 39.101562 110.25 29.746094 C 108.613281 28.496094 106.894531 27.332031 105.113281 26.253906 C 103.332031 25.179688 101.5 24.207031 99.628906 23.34375 Z M 109.65625 123.929688 C 100.660156 130.109375 90.339844 133.589844 79.84375 134.289062 C 69.34375 134.992188 58.652344 132.917969 48.921875 127.992188 L 50.28125 125.289062 C 59.519531 129.964844 69.671875 131.9375 79.644531 131.273438 C 89.617188 130.605469 99.417969 127.304688 107.949219 121.445312 Z M 33.851562 47.121094 C 34.796875 45.683594 35.808594 44.304688 36.875 42.996094 C 37.980469 41.640625 39.125 40.367188 40.300781 39.191406 C 44.496094 34.996094 49.375 31.609375 54.695312 29.140625 C 60.003906 26.675781 65.742188 25.136719 71.65625 24.640625 L 72.050781 29.46875 C 66.699219 29.917969 61.511719 31.308594 56.71875 33.535156 C 51.9375 35.753906 47.53125 38.820312 43.726562 42.621094 C 42.601562 43.742188 41.566406 44.886719 40.621094 46.046875 C 39.636719 47.253906 38.71875 48.5 37.882812 49.773438 Z M 33.851562 47.121094 " fill-opacity="1" fill-rule="nonzero"/></g><g fill="#000000" fill-opacity="1"><g transform="translate(62.930272, 91.62638)"><g><path d="M 15.046875 0 L 12.1875 -10.0625 L 9.3125 0 L 4.78125 0 L -0.328125 -17.921875 L 4.21875 -17.921875 L 7.28125 -5.625 L 7.390625 -5.625 L 10.640625 -17.921875 L 13.71875 -17.921875 L 16.984375 -5.625 L 17.09375 -5.625 L 20.15625 -17.921875 L 24.671875 -17.921875 L 19.5625 0 Z M 15.046875 0 "/></g></g></g><g fill="#000000" fill-opacity="1"><g transform="translate(89.439664, 91.62638)"><g><path d="M 11.546875 -17.921875 L 11.546875 -14.328125 L 5.390625 -14.328125 L 5.390625 -10.765625 L 11.296875 -10.765625 L 11.296875 -7.1875 L 5.390625 -7.1875 L 5.390625 -3.578125 L 11.546875 -3.578125 L 11.546875 0 L 1.296875 0 L 1.296875 -17.921875 Z M 11.546875 -17.921875 "/></g></g></g><g fill="#000000" fill-opacity="1"><g transform="translate(104.203287, 91.62638)"><g><path d="M 1.296875 -17.921875 L 6.859375 -17.921875 C 8.535156 -17.921875 9.875 -17.5625 10.875 -16.84375 C 11.875 -16.125 12.375 -14.960938 12.375 -13.359375 C 12.375 -11.554688 11.628906 -10.273438 10.140625 -9.515625 C 12.691406 -9.066406 13.96875 -7.5625 13.96875 -5 C 13.96875 -3.488281 13.445312 -2.273438 12.40625 -1.359375 C 11.363281 -0.453125 9.925781 0 8.09375 0 L 1.296875 0 Z M 5.390625 -10.90625 L 5.71875 -10.90625 C 6.625 -10.90625 7.300781 -11.0625 7.75 -11.375 C 8.195312 -11.695312 8.421875 -12.21875 8.421875 -12.9375 C 8.421875 -14.15625 7.519531 -14.765625 5.71875 -14.765625 L 5.390625 -14.765625 Z M 5.390625 -3.15625 L 6.671875 -3.15625 C 8.671875 -3.15625 9.671875 -3.816406 9.671875 -5.140625 C 9.671875 -5.941406 9.421875 -6.515625 8.921875 -6.859375 C 8.421875 -7.210938 7.671875 -7.390625 6.671875 -7.390625 L 5.390625 -7.390625 Z M 5.390625 -3.15625 "/></g></g></g><g fill="#000000" fill-opacity="1"><g transform="translate(120.834076, 91.62638)"><g/></g></g><g fill="#000000" fill-opacity="1"><g transform="translate(128.932355, 91.62638)"><g><path d="M 1.296875 -17.921875 L 6.5 -17.921875 C 8.988281 -17.921875 11.113281 -17.066406 12.875 -15.359375 C 14.644531 -13.660156 15.53125 -11.53125 15.53125 -8.96875 C 15.53125 -6.394531 14.648438 -4.253906 12.890625 -2.546875 C 11.128906 -0.847656 9 0 6.5 0 L 1.296875 0 Z M 5.390625 -3.65625 L 6.015625 -3.65625 C 7.503906 -3.65625 8.722656 -4.15625 9.671875 -5.15625 C 10.617188 -6.164062 11.101562 -7.429688 11.125 -8.953125 C 11.125 -10.472656 10.648438 -11.738281 9.703125 -12.75 C 8.753906 -13.757812 7.523438 -14.265625 6.015625 -14.265625 L 5.390625 -14.265625 Z M 5.390625 -3.65625 "/></g></g></g><g fill="#000000" fill-opacity="1"><g transform="translate(147.126354, 91.62638)"><g><path d="M 11.546875 -17.921875 L 11.546875 -14.328125 L 5.390625 -14.328125 L 5.390625 -10.765625 L 11.296875 -10.765625 L 11.296875 -7.1875 L 5.390625 -7.1875 L 5.390625 -3.578125 L 11.546875 -3.578125 L 11.546875 0 L 1.296875 0 L 1.296875 -17.921875 Z M 11.546875 -17.921875 "/></g></g></g><g fill="#000000" fill-opacity="1"><g transform="translate(161.889971, 91.62638)"><g><path d="M 7.90625 -18.25 C 8.875 -18.25 9.820312 -18.101562 10.75 -17.8125 C 11.675781 -17.53125 12.363281 -17.253906 12.8125 -16.984375 L 13.46875 -16.546875 L 11.8125 -13.296875 C 11.6875 -13.378906 11.503906 -13.488281 11.265625 -13.625 C 11.035156 -13.757812 10.601562 -13.941406 9.96875 -14.171875 C 9.332031 -14.410156 8.738281 -14.53125 8.1875 -14.53125 C 7.507812 -14.53125 6.984375 -14.382812 6.609375 -14.09375 C 6.242188 -13.800781 6.0625 -13.410156 6.0625 -12.921875 C 6.0625 -12.671875 6.144531 -12.441406 6.3125 -12.234375 C 6.488281 -12.023438 6.785156 -11.800781 7.203125 -11.5625 C 7.628906 -11.320312 8 -11.128906 8.3125 -10.984375 C 8.632812 -10.835938 9.128906 -10.625 9.796875 -10.34375 C 10.953125 -9.84375 11.9375 -9.171875 12.75 -8.328125 C 13.570312 -7.484375 13.984375 -6.523438 13.984375 -5.453125 C 13.984375 -4.421875 13.796875 -3.519531 13.421875 -2.75 C 13.054688 -1.988281 12.550781 -1.390625 11.90625 -0.953125 C 11.269531 -0.515625 10.554688 -0.191406 9.765625 0.015625 C 8.984375 0.222656 8.140625 0.328125 7.234375 0.328125 C 6.453125 0.328125 5.679688 0.242188 4.921875 0.078125 C 4.171875 -0.078125 3.539062 -0.273438 3.03125 -0.515625 C 2.53125 -0.753906 2.078125 -0.988281 1.671875 -1.21875 C 1.265625 -1.445312 0.96875 -1.640625 0.78125 -1.796875 L 0.5 -2.046875 L 2.546875 -5.46875 C 2.710938 -5.320312 2.945312 -5.132812 3.25 -4.90625 C 3.5625 -4.6875 4.101562 -4.390625 4.875 -4.015625 C 5.644531 -3.640625 6.328125 -3.453125 6.921875 -3.453125 C 8.648438 -3.453125 9.515625 -4.039062 9.515625 -5.21875 C 9.515625 -5.457031 9.453125 -5.679688 9.328125 -5.890625 C 9.203125 -6.109375 8.984375 -6.320312 8.671875 -6.53125 C 8.359375 -6.738281 8.082031 -6.898438 7.84375 -7.015625 C 7.613281 -7.140625 7.222656 -7.328125 6.671875 -7.578125 C 6.128906 -7.835938 5.726562 -8.035156 5.46875 -8.171875 C 4.382812 -8.703125 3.546875 -9.367188 2.953125 -10.171875 C 2.359375 -10.972656 2.0625 -11.835938 2.0625 -12.765625 C 2.0625 -14.378906 2.65625 -15.695312 3.84375 -16.71875 C 5.03125 -17.738281 6.382812 -18.25 7.90625 -18.25 Z M 7.90625 -18.25 "/></g></g></g><g fill="#000000" fill-opacity="1"><g transform="translate(178.651032, 91.62638)"><g><path d="M 5.390625 -17.921875 L 5.390625 0 L 1.296875 0 L 1.296875 -17.921875 Z M 5.390625 -17.921875 "/></g></g></g><g fill="#000000" fill-opacity="1"><g transform="translate(187.509207, 91.62638)"><g><path d="M 17.5 -10.03125 L 17.5 -6.140625 C 17.039062 -4.015625 16.03125 -2.40625 14.46875 -1.3125 C 12.90625 -0.21875 11.160156 0.328125 9.234375 0.328125 C 6.816406 0.328125 4.753906 -0.578125 3.046875 -2.390625 C 1.347656 -4.203125 0.5 -6.390625 0.5 -8.953125 C 0.5 -11.554688 1.332031 -13.753906 3 -15.546875 C 4.664062 -17.347656 6.742188 -18.25 9.234375 -18.25 C 12.140625 -18.25 14.441406 -17.226562 16.140625 -15.1875 L 13.46875 -12.25 C 12.507812 -13.78125 11.175781 -14.546875 9.46875 -14.546875 C 8.207031 -14.546875 7.128906 -14 6.234375 -12.90625 C 5.347656 -11.8125 4.90625 -10.492188 4.90625 -8.953125 C 4.90625 -7.429688 5.347656 -6.128906 6.234375 -5.046875 C 7.128906 -3.972656 8.207031 -3.4375 9.46875 -3.4375 C 10.507812 -3.4375 11.414062 -3.75 12.1875 -4.375 C 12.96875 -5.007812 13.359375 -5.847656 13.359375 -6.890625 L 9.234375 -6.890625 L 9.234375 -10.03125 Z M 17.5 -10.03125 "/></g></g></g><g fill="#000000" fill-opacity="1"><g transform="translate(207.678921, 91.62638)"><g><path d="M 5.390625 -11.125 L 5.390625 0 L 1.296875 0 L 1.296875 -17.921875 L 5.390625 -17.921875 L 12.515625 -6.796875 L 12.546875 -6.796875 L 12.546875 -17.921875 L 16.640625 -17.921875 L 16.640625 0 L 12.546875 0 L 5.421875 -11.125 Z M 5.390625 -11.125 "/></g></g></g><g fill="#000000" fill-opacity="1"><g transform="translate(62.930272, 62.289974)"><g><path d="M 5.59375 -1.765625 L 2.5 -1.765625 L 1.921875 0 L 0.046875 0 L 3.21875 -8.546875 L 4.859375 -8.546875 L 8.0625 0 L 6.1875 0 Z M 2.984375 -3.1875 L 5.109375 -3.1875 L 4.046875 -6.390625 Z M 2.984375 -3.1875 "/></g></g></g><g fill="#000000" fill-opacity="1"><g transform="translate(72.223551, 62.289974)"><g><path d="M 2.640625 0 L 0.875 0 L 0.875 -8.546875 L 2.640625 -8.546875 Z M 2.640625 0 "/></g></g></g><g fill="#000000" fill-opacity="1"><g transform="translate(76.931253, 62.289974)"><g><path d="M 3.0625 -8.546875 L 5.265625 -2.34375 L 7.453125 -8.546875 L 9.765625 -8.546875 L 9.765625 0 L 8 0 L 8 -2.34375 L 8.171875 -6.375 L 5.859375 0 L 4.65625 0 L 2.34375 -6.375 L 2.53125 -2.34375 L 2.53125 0 L 0.765625 0 L 0.765625 -8.546875 Z M 3.0625 -8.546875 "/></g></g></g><g fill="#000000" fill-opacity="1"><g transform="translate(88.667043, 62.289974)"><g><path d="M 3.0625 -8.546875 L 5.265625 -2.34375 L 7.453125 -8.546875 L 9.765625 -8.546875 L 9.765625 0 L 8 0 L 8 -2.34375 L 8.171875 -6.375 L 5.859375 0 L 4.65625 0 L 2.34375 -6.375 L 2.53125 -2.34375 L 2.53125 0 L 0.765625 0 L 0.765625 -8.546875 Z M 3.0625 -8.546875 "/></g></g></g><g fill="#000000" fill-opacity="1"><g transform="translate(100.402831, 62.289974)"><g><path d="M 2.640625 0 L 0.875 0 L 0.875 -8.546875 L 2.640625 -8.546875 Z M 2.640625 0 "/></g></g></g><g fill="#000000" fill-opacity="1"><g transform="translate(105.110533, 62.289974)"><g><path d="M 5.90625 -3.703125 L 2.53125 -3.703125 L 2.53125 -1.421875 L 6.5 -1.421875 L 6.5 0 L 0.765625 0 L 0.765625 -8.546875 L 6.484375 -8.546875 L 6.484375 -7.125 L 2.53125 -7.125 L 2.53125 -5.09375 L 5.90625 -5.09375 Z M 5.90625 -3.703125 "/></g></g></g><g fill="#000000" fill-opacity="1"><g transform="translate(113.076874, 62.289974)"><g><path d="M 3.953125 -2.984375 L 0.640625 -2.984375 L 0.640625 -4.34375 L 3.953125 -4.34375 Z M 3.953125 -2.984375 "/></g></g></g><g fill="#000000" fill-opacity="1"><g transform="translate(118.941248, 62.289974)"><g><path d="M 3.0625 -8.546875 L 5.265625 -2.34375 L 7.453125 -8.546875 L 9.765625 -8.546875 L 9.765625 0 L 8 0 L 8 -2.34375 L 8.171875 -6.375 L 5.859375 0 L 4.65625 0 L 2.34375 -6.375 L 2.53125 -2.34375 L 2.53125 0 L 0.765625 0 L 0.765625 -8.546875 Z M 3.0625 -8.546875 "/></g></g></g><g fill="#000000" fill-opacity="1"><g transform="translate(130.677038, 62.289974)"><g><path d="M 5.59375 -1.765625 L 2.5 -1.765625 L 1.921875 0 L 0.046875 0 L 3.21875 -8.546875 L 4.859375 -8.546875 L 8.0625 0 L 6.1875 0 Z M 2.984375 -3.1875 L 5.109375 -3.1875 L 4.046875 -6.390625 Z M 2.984375 -3.1875 "/></g></g></g><g fill="#000000" fill-opacity="1"><g transform="translate(139.970319, 62.289974)"><g><path d="M 3.9375 -3.125 L 2.53125 -3.125 L 2.53125 0 L 0.765625 0 L 0.765625 -8.546875 L 3.9375 -8.546875 C 4.945312 -8.546875 5.726562 -8.320312 6.28125 -7.875 C 6.832031 -7.425781 7.109375 -6.789062 7.109375 -5.96875 C 7.109375 -5.382812 6.976562 -4.894531 6.71875 -4.5 C 6.46875 -4.113281 6.085938 -3.804688 5.578125 -3.578125 L 7.421875 -0.078125 L 7.421875 0 L 5.53125 0 Z M 2.53125 -4.5625 L 3.953125 -4.5625 C 4.390625 -4.5625 4.726562 -4.671875 4.96875 -4.890625 C 5.21875 -5.117188 5.34375 -5.429688 5.34375 -5.828125 C 5.34375 -6.234375 5.226562 -6.550781 5 -6.78125 C 4.769531 -7.007812 4.414062 -7.125 3.9375 -7.125 L 2.53125 -7.125 Z M 2.53125 -4.5625 "/></g></g></g><g fill="#000000" fill-opacity="1"><g transform="translate(148.84673, 62.289974)"><g><path d="M 2.640625 0 L 0.875 0 L 0.875 -8.546875 L 2.640625 -8.546875 Z M 2.640625 0 "/></g></g></g><g fill="#000000" fill-opacity="1"><g transform="translate(153.554434, 62.289974)"><g><path d="M 2.640625 0 L 0.875 0 L 0.875 -8.546875 L 2.640625 -8.546875 Z M 2.640625 0 "/></g></g></g><g fill="#000000" fill-opacity="1"><g transform="translate(158.266432, 62.289974)"><g/></g></g></svg>